HIERARCHY
ROOT Hips
{
	OFFSET 0.00000 0.00000 0.00000
	CHANNELS 6 Xposition Yposition Zposition Zrotation Yrotation Xrotation 
	JOINT LHipJoint
	{
		OFFSET 0 0 0
		CHANNELS 3 Zrotation Yrotation Xrotation
		JOINT LeftHip
		{
			OFFSET 1.44361 -1.63093 0.70831
			CHANNELS 3 Zrotation Yrotation Xrotation
			JOINT LeftKnee
			{
				OFFSET 2.20103 -6.04728 0.00000
				CHANNELS 3 Zrotation Yrotation Xrotation
				JOINT LeftAnkle
				{
					OFFSET 2.54154 -6.98283 0.00000
					CHANNELS 3 Zrotation Yrotation Xrotation
					JOINT LeftToe
					{
						OFFSET 0.05971 -0.16406 1.77582
						CHANNELS 3 Zrotation Yrotation Xrotation
						End Site
						{
							OFFSET 0.00000 -0.00000 0.90832
						}
					}
				}
			}
		}
	}
	JOINT RHipJoint
	{
		OFFSET 0 0 0
		CHANNELS 3 Zrotation Yrotation Xrotation
		JOINT RightHip
		{
			OFFSET -1.65838 -1.63093 0.70830
			CHANNELS 3 Zrotation Yrotation Xrotation
			JOINT RightKnee
			{
				OFFSET -2.26926 -6.23475 0.00000
				CHANNELS 3 Zrotation Yrotation Xrotation
				JOINT RightAnkle
				{
					OFFSET -2.34808 -6.45129 0.00000
					CHANNELS 3 Zrotation Yrotation Xrotation
					JOINT RightToe
					{
						OFFSET -0.18633 -0.51195 1.68539
						CHANNELS 3 Zrotation Yrotation Xrotation
						End Site
						{
							OFFSET -0.00000 -0.00000 0.88927
						}
					}
				}
			}
		}
	}
	JOINT lowerback
	{
		OFFSET 0 0 0
		CHANNELS 3 Zrotation Yrotation Xrotation
		JOINT Chest
		{
			OFFSET -0.10393 2.01691 0.06920
			CHANNELS 3 Zrotation Yrotation Xrotation
			JOINT Chest2
			{
				OFFSET 0.04092 2.01302 -0.05283
				CHANNELS 3 Zrotation Yrotation Xrotation
				JOINT lowerneck
				{
					OFFSET 0 0 0
					CHANNELS 3 Zrotation Yrotation Xrotation
					JOINT Neck
					{
						OFFSET -0.02870 1.58978 -0.03113
						CHANNELS 3 Zrotation Yrotation Xrotation
						JOINT Head
						{
							OFFSET 0.11532 1.54326 -0.29195
							CHANNELS 3 Zrotation Yrotation Xrotation
							End Site
							{
								OFFSET 0.04056 1.59999 -0.09535
							}
						}
					}
				}
				JOINT LeftCollar
				{
					OFFSET 0 0 0
					CHANNELS 3 Zrotation Yrotation Xrotation
					JOINT LeftShoulder
					{
						OFFSET 3.30641 1.15764 0.01104
CHANNELS 3 Zrotation Xrotation Yrotation
						JOINT LeftElbow
						{
OFFSET 0 -4.632080 0.000000
CHANNELS 3 Zrotation Xrotation Yrotation
							JOINT LeftWrist
							{
OFFSET 0 -3.419240 -0.000000
CHANNELS 3 Zrotation Xrotation Yrotation
								JOINT lhand
								{
									OFFSET 0 0 0
CHANNELS 3 Zrotation Xrotation Yrotation
									JOINT LFingers
									{
OFFSET 0 -0.625370 -0.000000
CHANNELS 3 Zrotation Xrotation Yrotation
										End Site
										{
OFFSET 0 -0.504190 -0.000000
										}
									}
								}
								JOINT LThumb
								{
OFFSET 0 0.000000 0.000000
CHANNELS 3 Zrotation Xrotation Yrotation
									End Site
									{
OFFSET 0 -0.511890 0.511890
									}
								}
							}
						}
					}
				}
				JOINT RightCollar
				{
					OFFSET 0 0 0
					CHANNELS 3 Zrotation Yrotation Xrotation
					JOINT RightShoulder
					{
						OFFSET -3.78081 1.02180 -0.16609
CHANNELS 3 Zrotation Xrotation Yrotation
						JOINT RightElbow
						{
OFFSET 0 -4.406400 -0.000000
CHANNELS 3 Zrotation Xrotation Yrotation
							JOINT RightWrist
							{
OFFSET 0 -3.446750 0.000000
CHANNELS 3 Zrotation Xrotation Yrotation
								JOINT rhand
								{
									OFFSET 0 0 0
CHANNELS 3 Zrotation Xrotation Yrotation
									JOINT RFingers
									{
OFFSET 0 -0.513670 -0.000000
CHANNELS 3 Zrotation Xrotation Yrotation
										End Site
										{
OFFSET 0 -0.414140 -0.000000
										}
									}
								}
								JOINT RThumb
								{
OFFSET 0 0.000000 0.000000
CHANNELS 3 Zrotation Xrotation Yrotation
									End Site
									{
OFFSET 0 -0.420460 0.420460
									}
								}
							}
						}
					}
				}
			}
		}
	}
}
MOTION
Frames: 4
Frame Time: 0.008333333333333333
9.003200 17.302900 38.783400 179.540000 -0.845000 -169.823000 0.000000 0.000000 0.000000 -14.624900 -12.076100 -3.522200 0.068500 1.688500 4.645600 0.979900 0.875300 -19.041800 8.287000 -16.326400 -53.590100 0.000000 0.000000 0.000000 12.700600 8.979600 -5.737700 -0.152600 -2.517200 6.937200 -0.512600 -2.134800 -14.468600 -2.397400 9.649000 -27.847400 -5.009300 1.716600 -8.048300 1.637700 2.671400 0.523000 4.847900 1.166800 4.757000 -3.101600 -1.608100 -8.362300 7.163400 -5.598500 25.689000 2.297000 -2.867400 9.770000 -0.000000 -0.000000 0.000000 0.060200 -1.415100 -19.691500 8.324200 -14.077100 1.029600 23.610300 19.905000 18.725900 0.000000 0.000000 0.000000 -7.125000 0.000000 0.000000 -2.959800 9.699300 -2.422100 -0.000000 -0.000000 0.000000 3.455900 10.013300 -12.952600 -14.401200 -23.305300 -2.985000 -25.261900 33.723800 37.995100 0.000000 0.000000 0.000000 7.125000 0.000000 -0.000000 14.139200 70.336600 -8.614100
9.030022 17.304059 38.782859 179.469661 -0.914025 -169.857783 0.000000 0.000000 0.000000 -14.613151 -12.126187 -3.385928 0.064403 1.637253 4.504149 0.980209 0.838198 -19.030206 8.234284 -16.288912 -53.402272 0.000000 0.000000 0.000000 12.730668 8.820217 -5.805720 -0.157624 -2.558012 7.050515 -0.515615 -2.024036 -14.449817 -2.377922 9.612517 -27.730916 -4.865762 1.623304 -7.977884 1.711363 2.527167 0.573938 4.826721 1.095920 4.790314 -3.259206 -1.716468 -8.521297 7.432234 -5.790502 25.645328 2.394315 -2.939130 9.809962 0.000000 0.000000 0.000000 -0.097096 -1.606329 -19.332153 8.197667 -13.872731 0.999068 23.611614 20.352541 18.724277 0.000000 0.000000 0.000000 -7.125000 0.000000 0.000000 -2.958795 9.700846 -2.421250 0.000000 0.000000 0.000000 3.283376 9.943038 -13.049606 -14.411789 -23.320295 -2.989174 -25.401264 33.796380 38.182696 0.000000 0.000000 0.000000 7.125000 0.000000 0.000000 14.188746 70.560680 -8.715125
9.058372 17.304291 38.782045 179.313068 -0.998499 -169.888745 0.000000 0.000000 0.000000 -14.722649 -12.253903 -3.196157 0.059979 1.579947 4.346103 0.979754 0.871464 -19.038646 8.205261 -16.268183 -53.298678 0.000000 0.000000 0.000000 12.667767 8.648387 -5.836727 -0.160629 -2.582392 7.118247 -0.518902 -1.935653 -14.446920 -2.364503 9.587279 -27.650407 -4.785495 1.509155 -7.879735 1.765372 2.360278 0.590702 4.816187 1.014832 4.772968 -3.313907 -1.727883 -8.569201 7.564426 -5.839312 25.637140 2.443535 -2.954686 9.824975 0.000000 0.000000 0.000000 -0.239817 -1.762292 -18.993224 8.058306 -13.647235 0.965971 23.620844 20.832072 18.672102 0.000000 0.000000 0.000000 -7.125000 0.000000 0.000000 -2.948291 9.755127 -2.409372 0.000000 0.000000 0.000000 3.085414 9.977482 -13.029678 -14.437883 -23.357236 -2.999517 -25.520866 33.657257 38.161536 0.000000 0.000000 0.000000 7.125000 0.000000 0.000000 14.000058 70.579716 -8.603737
9.089047 17.304296 38.781117 179.183100 -1.103939 -169.880810 0.000000 0.000000 0.000000 -14.775052 -12.390755 -3.070612 0.056439 1.532843 4.216229 0.973816 0.994230 -19.030931 8.251587 -16.300883 -53.463366 0.000000 0.000000 0.000000 12.649170 8.527978 -5.874343 -0.163048 -2.601596 7.171580 -0.522845 -1.902911 -14.481273 -2.361831 9.582215 -27.634252 -4.661648 1.390478 -7.804267 1.828906 2.182373 0.581231 4.789992 0.929721 4.742939 -3.275589 -1.716735 -8.545265 7.601111 -5.844543 25.599771 2.448870 -2.953161 9.807548 0.000000 0.000000 0.000000 -0.350392 -1.892460 -18.818933 7.931019 -13.440948 0.936111 23.600236 21.205844 18.605791 0.000000 0.000000 0.000000 -7.125000 0.000000 0.000000 -2.955966 9.829012 -2.411211 0.000000 0.000000 0.000000 2.865582 10.032228 -13.040929 -14.449857 -23.374224 -3.004262 -25.528554 33.448675 38.116881 0.000000 0.000000 0.000000 7.125000 0.000000 0.000000 13.932845 70.539780 -8.549408
